<?xml version="1.0" encoding="UTF-8" standalone="no"?>
<!DOCTYPE svg PUBLIC "-//W3C//DTD SVG 1.1//EN"
 "http://www.w3.org/Graphics/SVG/1.1/DTD/svg11.dtd">
<!-- Generated by graphviz version 5.0.0 (20220707.1540)
 -->
<!-- Title: dependencies Pages: 1 -->
<svg width="312pt" height="247pt"
 viewBox="0.00 0.00 312.00 246.80" xmlns="http://www.w3.org/2000/svg" xmlns:xlink="http://www.w3.org/1999/xlink">
<g id="graph0" class="graph" transform="scale(1 1) rotate(0) translate(4 242.8)">
<title>dependencies</title>
<polygon fill="white" stroke="transparent" points="-4,4 -4,-242.8 308,-242.8 308,4 -4,4"/>
<text text-anchor="middle" x="152" y="-8.2" font-family="sans-serif" font-size="14.00">dependencies</text>
<g id="clust1" class="cluster">
<title>cluster_UsersModule</title>
<polygon fill="none" stroke="black" stroke-dasharray="1,5" points="8,-32.8 8,-230.8 296,-230.8 296,-32.8 8,-32.8"/>
</g>
<g id="clust4" class="cluster">
<title>cluster_UsersModule_exports</title>
<polygon fill="none" stroke="black" points="35,-170.8 35,-222.8 248,-222.8 248,-170.8 35,-170.8"/>
</g>
<g id="clust6" class="cluster">
<title>cluster_UsersModule_providers</title>
<polygon fill="none" stroke="black" points="16,-40.8 16,-92.8 288,-92.8 288,-40.8 16,-40.8"/>
</g>
<!-- JwtStrategy  -->
<g id="node1" class="node">
<title>JwtStrategy </title>
<polygon fill="#fb8072" stroke="black" points="239.6,-214.8 154.4,-214.8 154.4,-178.8 239.6,-178.8 239.6,-214.8"/>
<text text-anchor="middle" x="197" y="-192.6" font-family="Times,serif" font-size="14.00">JwtStrategy </text>
</g>
<!-- UsersService  -->
<g id="node2" class="node">
<title>UsersService </title>
<polygon fill="#fb8072" stroke="black" points="136.86,-214.8 43.14,-214.8 43.14,-178.8 136.86,-178.8 136.86,-214.8"/>
<text text-anchor="middle" x="90" y="-192.6" font-family="Times,serif" font-size="14.00">UsersService </text>
</g>
<!-- UsersModule -->
<g id="node3" class="node">
<title>UsersModule</title>
<polygon fill="#8dd3c7" stroke="black" points="153.94,-149.8 150.94,-153.8 129.94,-153.8 126.94,-149.8 62.06,-149.8 62.06,-113.8 153.94,-113.8 153.94,-149.8"/>
<text text-anchor="middle" x="108" y="-127.6" font-family="Times,serif" font-size="14.00">UsersModule</text>
</g>
<!-- UsersModule&#45;&gt;JwtStrategy  -->
<g id="edge1" class="edge">
<title>UsersModule&#45;&gt;JwtStrategy </title>
<path fill="none" stroke="black" stroke-dasharray="5,2" d="M153.87,-137.8C157.78,-137.8 160.28,-137.8 160.28,-137.8 160.28,-137.8 160.28,-168.78 160.28,-168.78"/>
<polygon fill="black" stroke="black" points="156.78,-168.78 160.28,-178.78 163.78,-168.78 156.78,-168.78"/>
</g>
<!-- UsersModule&#45;&gt;UsersService  -->
<g id="edge2" class="edge">
<title>UsersModule&#45;&gt;UsersService </title>
<path fill="none" stroke="black" stroke-dasharray="5,2" d="M99.48,-149.91C99.48,-149.91 99.48,-168.79 99.48,-168.79"/>
<polygon fill="black" stroke="black" points="95.98,-168.79 99.48,-178.79 102.98,-168.79 95.98,-168.79"/>
</g>
<!-- JwtStrategy -->
<g id="node4" class="node">
<title>JwtStrategy</title>
<ellipse fill="#fdb462" stroke="black" cx="223" cy="-66.8" rx="56.77" ry="18"/>
<text text-anchor="middle" x="223" y="-62.6" font-family="Times,serif" font-size="14.00">JwtStrategy</text>
</g>
<!-- JwtStrategy&#45;&gt;UsersModule -->
<g id="edge3" class="edge">
<title>JwtStrategy&#45;&gt;UsersModule</title>
<path fill="none" stroke="black" d="M203.08,-83.87C203.08,-101.29 203.08,-125.8 203.08,-125.8 203.08,-125.8 163.87,-125.8 163.87,-125.8"/>
<polygon fill="black" stroke="black" points="163.87,-122.3 153.87,-125.8 163.87,-129.3 163.87,-122.3"/>
</g>
<!-- UsersService -->
<g id="node5" class="node">
<title>UsersService</title>
<ellipse fill="#fdb462" stroke="black" cx="86" cy="-66.8" rx="61.97" ry="18"/>
<text text-anchor="middle" x="86" y="-62.6" font-family="Times,serif" font-size="14.00">UsersService</text>
</g>
<!-- UsersService&#45;&gt;UsersModule -->
<g id="edge4" class="edge">
<title>UsersService&#45;&gt;UsersModule</title>
<path fill="none" stroke="black" d="M105.13,-84.22C105.13,-84.22 105.13,-103.42 105.13,-103.42"/>
<polygon fill="black" stroke="black" points="101.63,-103.42 105.13,-113.42 108.63,-103.42 101.63,-103.42"/>
</g>
</g>
</svg>
