<?xml version="1.0" encoding="UTF-8" standalone="no"?>
<!DOCTYPE svg PUBLIC "-//W3C//DTD SVG 1.1//EN"
 "http://www.w3.org/Graphics/SVG/1.1/DTD/svg11.dtd">
<!-- Generated by graphviz version 5.0.0 (20220707.1540)
 -->
<!-- Title: dependencies Pages: 1 -->
<svg width="318pt" height="174pt"
 viewBox="0.00 0.00 318.00 173.80" xmlns="http://www.w3.org/2000/svg" xmlns:xlink="http://www.w3.org/1999/xlink">
<g id="graph0" class="graph" transform="scale(1 1) rotate(0) translate(4 169.8)">
<title>dependencies</title>
<polygon fill="white" stroke="transparent" points="-4,4 -4,-169.8 314,-169.8 314,4 -4,4"/>
<text text-anchor="middle" x="155" y="-8.2" font-family="sans-serif" font-size="14.00">dependencies</text>
<g id="clust1" class="cluster">
<title>cluster_WeatherModule</title>
<polygon fill="none" stroke="black" stroke-dasharray="1,5" points="8,-32.8 8,-157.8 302,-157.8 302,-32.8 8,-32.8"/>
</g>
<g id="clust6" class="cluster">
<title>cluster_WeatherModule_providers</title>
<polygon fill="none" stroke="black" points="132,-40.8 132,-92.8 294,-92.8 294,-40.8 132,-40.8"/>
</g>
<g id="clust3" class="cluster">
<title>cluster_WeatherModule_imports</title>
<polygon fill="none" stroke="black" points="16,-40.8 16,-92.8 124,-92.8 124,-40.8 16,-40.8"/>
</g>
<!-- UsersModule -->
<g id="node1" class="node">
<title>UsersModule</title>
<polygon fill="#8dd3c7" stroke="black" points="115.94,-84.8 112.94,-88.8 91.94,-88.8 88.94,-84.8 24.06,-84.8 24.06,-48.8 115.94,-48.8 115.94,-84.8"/>
<text text-anchor="middle" x="70" y="-62.6" font-family="Times,serif" font-size="14.00">UsersModule</text>
</g>
<!-- WeatherModule -->
<g id="node2" class="node">
<title>WeatherModule</title>
<polygon fill="#8dd3c7" stroke="black" points="194.46,-149.8 191.46,-153.8 170.46,-153.8 167.46,-149.8 87.54,-149.8 87.54,-113.8 194.46,-113.8 194.46,-149.8"/>
<text text-anchor="middle" x="141" y="-127.6" font-family="Times,serif" font-size="14.00">WeatherModule</text>
</g>
<!-- UsersModule&#45;&gt;WeatherModule -->
<g id="edge1" class="edge">
<title>UsersModule&#45;&gt;WeatherModule</title>
<path fill="none" stroke="black" d="M101.62,-84.91C101.62,-84.91 101.62,-103.79 101.62,-103.79"/>
<polygon fill="black" stroke="black" points="98.12,-103.79 101.62,-113.79 105.12,-103.79 98.12,-103.79"/>
</g>
<!-- WeatherService -->
<g id="node3" class="node">
<title>WeatherService</title>
<ellipse fill="#fdb462" stroke="black" cx="213" cy="-66.8" rx="72.89" ry="18"/>
<text text-anchor="middle" x="213" y="-62.6" font-family="Times,serif" font-size="14.00">WeatherService</text>
</g>
<!-- WeatherService&#45;&gt;WeatherModule -->
<g id="edge2" class="edge">
<title>WeatherService&#45;&gt;WeatherModule</title>
<path fill="none" stroke="black" d="M167.39,-80.9C167.39,-80.9 167.39,-103.52 167.39,-103.52"/>
<polygon fill="black" stroke="black" points="163.89,-103.52 167.39,-113.52 170.89,-103.52 163.89,-103.52"/>
</g>
</g>
</svg>
