<?xml version="1.0" encoding="UTF-8" standalone="no"?>
<!DOCTYPE svg PUBLIC "-//W3C//DTD SVG 1.1//EN"
 "http://www.w3.org/Graphics/SVG/1.1/DTD/svg11.dtd">
<!-- Generated by graphviz version 5.0.0 (20220707.1540)
 -->
<!-- Title: dependencies Pages: 1 -->
<svg width="1015pt" height="250pt"
 viewBox="0.00 0.00 1015.00 249.80" xmlns="http://www.w3.org/2000/svg" xmlns:xlink="http://www.w3.org/1999/xlink">
<g id="graph0" class="graph" transform="scale(1 1) rotate(0) translate(4 245.8)">
<title>dependencies</title>
<polygon fill="white" stroke="transparent" points="-4,4 -4,-245.8 1011,-245.8 1011,4 -4,4"/>
<text text-anchor="middle" x="503.5" y="-8.2" font-family="sans-serif" font-size="14.00">dependencies</text>
<g id="clust1" class="cluster">
<title>cluster_AppModule</title>
<polygon fill="none" stroke="black" stroke-dasharray="1,5" points="194,-32.8 194,-233.8 482,-233.8 482,-32.8 194,-32.8"/>
</g>
<g id="clust3" class="cluster">
<title>cluster_AppModule_imports</title>
<polygon fill="none" stroke="black" points="340,-40.8 340,-168.8 462,-168.8 462,-40.8 340,-40.8"/>
</g>
<g id="clust6" class="cluster">
<title>cluster_AppModule_providers</title>
<polygon fill="none" stroke="black" points="202,-116.8 202,-168.8 332,-168.8 332,-116.8 202,-116.8"/>
</g>
<g id="clust7" class="cluster">
<title>cluster_UsersModule</title>
<polygon fill="none" stroke="black" stroke-dasharray="1,5" points="490,-108.8 490,-176.8 999,-176.8 999,-108.8 490,-108.8"/>
</g>
<g id="clust10" class="cluster">
<title>cluster_UsersModule_exports</title>
<polygon fill="none" stroke="black" points="778,-116.8 778,-168.8 991,-168.8 991,-116.8 778,-116.8"/>
</g>
<g id="clust12" class="cluster">
<title>cluster_UsersModule_providers</title>
<polygon fill="none" stroke="black" points="498,-116.8 498,-168.8 770,-168.8 770,-116.8 498,-116.8"/>
</g>
<g id="clust13" class="cluster">
<title>cluster_WeatherModule</title>
<polygon fill="none" stroke="black" stroke-dasharray="1,5" points="8,-32.8 8,-100.8 186,-100.8 186,-32.8 8,-32.8"/>
</g>
<g id="clust18" class="cluster">
<title>cluster_WeatherModule_providers</title>
<polygon fill="none" stroke="black" points="16,-40.8 16,-92.8 178,-92.8 178,-40.8 16,-40.8"/>
</g>
<!-- UsersModule -->
<g id="node1" class="node">
<title>UsersModule</title>
<polygon fill="#8dd3c7" stroke="black" points="453.94,-84.8 450.94,-88.8 429.94,-88.8 426.94,-84.8 362.06,-84.8 362.06,-48.8 453.94,-48.8 453.94,-84.8"/>
<text text-anchor="middle" x="408" y="-62.6" font-family="Times,serif" font-size="14.00">UsersModule</text>
</g>
<!-- WeatherModule -->
<g id="node2" class="node">
<title>WeatherModule</title>
<polygon fill="#8dd3c7" stroke="black" points="454.46,-160.8 451.46,-164.8 430.46,-164.8 427.46,-160.8 347.54,-160.8 347.54,-124.8 454.46,-124.8 454.46,-160.8"/>
<text text-anchor="middle" x="401" y="-138.6" font-family="Times,serif" font-size="14.00">WeatherModule</text>
</g>
<!-- UsersModule&#45;&gt;WeatherModule -->
<g id="edge8" class="edge">
<title>UsersModule&#45;&gt;WeatherModule</title>
<path fill="none" stroke="black" d="M408,-84.81C408,-84.81 408,-114.65 408,-114.65"/>
<polygon fill="black" stroke="black" points="404.5,-114.65 408,-124.65 411.5,-114.65 404.5,-114.65"/>
</g>
<!-- AppModule -->
<g id="node3" class="node">
<title>AppModule</title>
<polygon fill="#8dd3c7" stroke="black" points="442.66,-225.8 439.66,-229.8 418.66,-229.8 415.66,-225.8 359.34,-225.8 359.34,-189.8 442.66,-189.8 442.66,-225.8"/>
<text text-anchor="middle" x="401" y="-203.6" font-family="Times,serif" font-size="14.00">AppModule</text>
</g>
<!-- UsersModule&#45;&gt;AppModule -->
<g id="edge1" class="edge">
<title>UsersModule&#45;&gt;AppModule</title>
<path fill="none" stroke="black" d="M362.13,-72.8C347.76,-72.8 335.57,-72.8 335.57,-72.8 335.57,-72.8 335.57,-201.8 335.57,-201.8 335.57,-201.8 349.19,-201.8 349.19,-201.8"/>
<polygon fill="black" stroke="black" points="349.19,-205.3 359.19,-201.8 349.19,-198.3 349.19,-205.3"/>
</g>
<!-- JwtStrategy  -->
<g id="node5" class="node">
<title>JwtStrategy </title>
<polygon fill="#fb8072" stroke="black" points="982.6,-160.8 897.4,-160.8 897.4,-124.8 982.6,-124.8 982.6,-160.8"/>
<text text-anchor="middle" x="940" y="-138.6" font-family="Times,serif" font-size="14.00">JwtStrategy </text>
</g>
<!-- UsersModule&#45;&gt;JwtStrategy  -->
<g id="edge4" class="edge">
<title>UsersModule&#45;&gt;JwtStrategy </title>
<path fill="none" stroke="black" stroke-dasharray="5,2" d="M453.82,-56.8C582.86,-56.8 940,-56.8 940,-56.8 940,-56.8 940,-114.56 940,-114.56"/>
<polygon fill="black" stroke="black" points="936.5,-114.56 940,-124.56 943.5,-114.56 936.5,-114.56"/>
</g>
<!-- UsersService  -->
<g id="node6" class="node">
<title>UsersService </title>
<polygon fill="#fb8072" stroke="black" points="879.86,-160.8 786.14,-160.8 786.14,-124.8 879.86,-124.8 879.86,-160.8"/>
<text text-anchor="middle" x="833" y="-138.6" font-family="Times,serif" font-size="14.00">UsersService </text>
</g>
<!-- UsersModule&#45;&gt;UsersService  -->
<g id="edge5" class="edge">
<title>UsersModule&#45;&gt;UsersService </title>
<path fill="none" stroke="black" stroke-dasharray="5,2" d="M453.89,-63.8C563.78,-63.8 833,-63.8 833,-63.8 833,-63.8 833,-114.48 833,-114.48"/>
<polygon fill="black" stroke="black" points="829.5,-114.48 833,-124.48 836.5,-114.48 829.5,-114.48"/>
</g>
<!-- WeatherModule&#45;&gt;AppModule -->
<g id="edge2" class="edge">
<title>WeatherModule&#45;&gt;AppModule</title>
<path fill="none" stroke="black" d="M401,-160.91C401,-160.91 401,-179.79 401,-179.79"/>
<polygon fill="black" stroke="black" points="397.5,-179.79 401,-189.79 404.5,-179.79 397.5,-179.79"/>
</g>
<!-- AppService -->
<g id="node4" class="node">
<title>AppService</title>
<ellipse fill="#fdb462" stroke="black" cx="267" cy="-142.8" rx="56.75" ry="18"/>
<text text-anchor="middle" x="267" y="-138.6" font-family="Times,serif" font-size="14.00">AppService</text>
</g>
<!-- AppService&#45;&gt;AppModule -->
<g id="edge3" class="edge">
<title>AppService&#45;&gt;AppModule</title>
<path fill="none" stroke="black" d="M267,-161.08C267,-182.12 267,-213.8 267,-213.8 267,-213.8 349.34,-213.8 349.34,-213.8"/>
<polygon fill="black" stroke="black" points="349.34,-217.3 359.34,-213.8 349.34,-210.3 349.34,-217.3"/>
</g>
<!-- JwtStrategy -->
<g id="node7" class="node">
<title>JwtStrategy</title>
<ellipse fill="#fdb462" stroke="black" cx="705" cy="-142.8" rx="56.77" ry="18"/>
<text text-anchor="middle" x="705" y="-138.6" font-family="Times,serif" font-size="14.00">JwtStrategy</text>
</g>
<!-- JwtStrategy&#45;&gt;UsersModule -->
<g id="edge6" class="edge">
<title>JwtStrategy&#45;&gt;UsersModule</title>
<path fill="none" stroke="black" d="M705,-124.63C705,-103.3 705,-70.8 705,-70.8 705,-70.8 463.76,-70.8 463.76,-70.8"/>
<polygon fill="black" stroke="black" points="463.76,-67.3 453.76,-70.8 463.76,-74.3 463.76,-67.3"/>
</g>
<!-- UsersService -->
<g id="node8" class="node">
<title>UsersService</title>
<ellipse fill="#fdb462" stroke="black" cx="568" cy="-142.8" rx="61.97" ry="18"/>
<text text-anchor="middle" x="568" y="-138.6" font-family="Times,serif" font-size="14.00">UsersService</text>
</g>
<!-- UsersService&#45;&gt;UsersModule -->
<g id="edge7" class="edge">
<title>UsersService&#45;&gt;UsersModule</title>
<path fill="none" stroke="black" d="M568,-124.69C568,-105.46 568,-77.8 568,-77.8 568,-77.8 463.85,-77.8 463.85,-77.8"/>
<polygon fill="black" stroke="black" points="463.85,-74.3 453.85,-77.8 463.85,-81.3 463.85,-74.3"/>
</g>
<!-- WeatherService -->
<g id="node9" class="node">
<title>WeatherService</title>
<ellipse fill="#fdb462" stroke="black" cx="97" cy="-66.8" rx="72.89" ry="18"/>
<text text-anchor="middle" x="97" y="-62.6" font-family="Times,serif" font-size="14.00">WeatherService</text>
</g>
<!-- WeatherService&#45;&gt;WeatherModule -->
<g id="edge9" class="edge">
<title>WeatherService&#45;&gt;WeatherModule</title>
<path fill="none" stroke="black" d="M165.77,-60.8C242.17,-60.8 354.9,-60.8 354.9,-60.8 354.9,-60.8 354.9,-114.6 354.9,-114.6"/>
<polygon fill="black" stroke="black" points="351.4,-114.6 354.9,-124.6 358.4,-114.6 351.4,-114.6"/>
</g>
</g>
</svg>
